<svg width="283" height="264" viewBox="0 0 283 264" fill="none" xmlns="http://www.w3.org/2000/svg">
<g clip-path="url(#clip0_4649_24710)">
<path d="M150.825 24.389C153.249 20.1265 156.087 15.9961 159.943 13.0544C162.992 10.7328 166.622 9.22423 170.384 8.71816C174.018 8.23054 178.212 8.92966 180.354 11.9869C183.477 16.4428 180.602 23.1402 183.183 27.9471C186.433 29.423 190.18 27.8115 193.288 26.0329C202.222 20.928 210.314 14.2891 219.565 9.82236C228.815 5.35562 239.912 3.26299 249.163 7.70926C249.864 8.04558 250.553 8.42058 251.203 8.84915C254.365 10.9276 256.651 14.3686 257.383 18.1541C258.477 23.813 256.2 29.5829 253.41 34.5953C250.621 39.6077 247.232 44.3956 245.778 49.9721C244.748 53.9226 244.84 58.4293 247.149 61.7519C251.531 68.0596 261.564 67.5081 266.225 73.5989C269.432 77.7928 269.021 83.7568 267.946 88.9769C266.135 97.7813 263.814 106.939 258.344 113.972C251.103 123.282 244.117 130.092 225.825 122.756C213.986 118.01 205.298 105.998 192.726 104.079C187.488 103.28 182.193 104.633 176.918 105.138C170.256 105.78 163.472 105.051 157.085 103.016C148.745 100.357 140.625 94.8602 137.662 86.4194C135.32 79.7377 136.542 72.3152 138.379 65.4657C142.065 51.7202 143.72 36.8617 150.823 24.3803L150.825 24.389Z" fill="#DADBEC"/>
<path d="M31.0908 27H141.591C202.618 27 252.091 76.4732 252.091 137.5V248H141.591C80.564 248.006 31.0908 198.532 31.0908 137.5V27Z" fill="#6D6DB4"/>
<mask id="mask0_4649_24710" style="mask-type:luminance" maskUnits="userSpaceOnUse" x="31" y="26" width="219" height="219">
<path d="M31.0908 26.812H140.494C200.917 26.812 249.898 75.5509 249.898 135.676V244.539H140.494C80.0714 244.539 31.0908 195.797 31.0908 135.676V26.812Z" fill="white"/>
</mask>
<g mask="url(#mask0_4649_24710)">
<path d="M15.2598 94.679C26.5601 94.9755 37.9192 92.6004 48.1422 87.7986C53.3662 85.3442 58.6942 81.7661 60.2531 76.23C61.812 70.6974 57.0591 63.5721 51.4574 64.9786C49.3373 69.5701 53.096 75.1993 57.932 76.7367C62.7716 78.2741 68.0441 76.8022 72.7104 74.8063C93.9842 65.7128 109.802 45.0232 112.933 22.1963" stroke="#2B2C61" stroke-width="1.25" stroke-miterlimit="10"/>
<path d="M15.2139 121.632C36.796 112.959 55.6552 97.7124 68.6079 78.4705C81.5606 59.2287 88.5514 36.0709 88.4025 12.9131" stroke="#2B2C61" stroke-width="1.25" stroke-miterlimit="10"/>
</g>
<path d="M24.3182 134L24.5772 143.59C24.7992 151.766 31.2125 158.344 39.1896 158.568L48.5457 158.833L39.1896 159.099C31.2125 159.326 24.7958 165.9 24.5772 174.076L24.3182 183.666L24.0593 174.076C23.8373 165.9 17.424 159.323 9.44683 159.099L0.0908203 158.833L9.44683 158.568C17.424 158.34 23.8407 151.766 24.0593 143.59L24.3182 134Z" fill="#2B2C61" stroke="#2B2C61" stroke-width="1.25" stroke-miterlimit="10"/>
<path d="M13.0092 108.331L13.137 113.126C13.248 117.214 16.4563 120.502 20.4449 120.616L25.1229 120.747L20.4449 120.878C16.4563 120.992 13.248 124.28 13.137 128.369L13.0092 133.164L12.8814 128.369C12.7704 124.28 9.56209 120.992 5.57351 120.878L0.895508 120.747L5.57351 120.616C9.56209 120.502 12.7704 117.214 12.8814 113.126L13.0092 108.331Z" fill="#2B2C61" stroke="#2B2C61" stroke-width="1.25" stroke-miterlimit="10"/>
<path fill-rule="evenodd" clip-rule="evenodd" d="M70.8226 227.444L73.4974 222.565L64.8413 220.081C64.743 220.432 60.2119 227.89 60.2119 227.89C58.9046 228.839 57.4862 229.639 56.0329 230.332C53.4342 231.571 50.7149 232.524 48.0939 233.711C47.7354 233.874 47.3737 234.046 47.1008 234.329C46.8279 234.612 46.6597 235.042 46.7771 235.422C46.9453 235.965 47.5926 236.183 48.1479 236.177C48.7032 236.17 49.7312 236.447 52.2157 235.913C52.3744 235.881 49.7979 237.367 49.1506 237.793C49.1506 237.793 46.2155 239.914 45.7554 240.255C44.8542 240.919 44.4132 242.044 44.4322 242.525C44.4513 242.968 45.1144 243.413 45.5206 243.566C45.8506 243.686 48.0337 243.244 48.0337 243.244C47.3261 244.028 46.3932 244.701 45.9775 245.82C45.822 246.233 45.8887 246.727 46.206 247.03C46.9358 247.729 49.8201 246.158 49.9946 246.213C49.8328 246.477 48.6936 248.542 50.2421 248.929C50.6609 249.033 51.0988 249.001 51.5145 248.89C52.8662 248.529 62.4838 241.546 65.8631 239.094C71.2128 235.217 72.114 243.176 76.3691 240.187C74.3669 237.185 69.9595 231.724 70.8226 227.441V227.444Z" fill="white" stroke="#191947" stroke-width="1.25" stroke-miterlimit="10"/>
<path fill-rule="evenodd" clip-rule="evenodd" d="M216.326 151.434C216.649 149.649 218.328 138.872 218.324 137.057C218.321 135.873 218.182 134.694 218.158 133.51C218.122 131.761 218.345 130.006 218.817 128.326C219.032 127.56 219.297 126.806 219.444 126.025C219.622 125.087 219.621 124.123 219.6 123.167C219.499 118.952 218.952 114.752 217.971 110.66C218.816 110.267 219.831 110.531 220.627 111.02C222.251 112.018 223.24 113.833 223.826 115.679C224.413 117.524 224.815 119.425 225.226 121.321C225.41 122.176 226.516 122.035 226.931 121.873C229.491 120.869 232.054 119.869 234.613 118.866C235.62 118.473 236.652 118.072 237.728 118.066C238.804 118.06 239.949 118.535 240.461 119.504C240.792 120.129 240.822 120.87 240.843 121.581C240.855 121.954 240.863 122.341 240.7 122.673C241.421 122.671 242.995 123.384 243.344 124.034C244.083 125.416 243.513 127.349 242.122 127.354C242.122 127.354 244.334 127.601 244.781 129.315C244.927 130.896 243.724 131.431 242.926 131.787C242.926 131.787 245.078 134.32 240.897 135.316C239.693 135.602 238.508 135.93 237.279 136.059C236.077 138.185 233.858 140.137 231.568 140.865C231.8 142.791 231.031 149.37 230.784 151.295" fill="white"/>
<path d="M216.326 151.434C216.649 149.649 218.328 138.872 218.324 137.057C218.321 135.873 218.182 134.694 218.158 133.51C218.122 131.761 218.345 130.006 218.817 128.326C219.032 127.56 219.297 126.806 219.444 126.025C219.622 125.087 219.621 124.123 219.6 123.167C219.499 118.952 218.952 114.752 217.971 110.66C218.816 110.267 219.831 110.531 220.627 111.02C222.251 112.018 223.24 113.833 223.826 115.679C224.413 117.524 224.815 119.425 225.226 121.321C225.41 122.176 226.516 122.035 226.931 121.873C229.491 120.869 232.054 119.869 234.613 118.866C235.62 118.473 236.652 118.072 237.728 118.066C238.804 118.06 239.949 118.535 240.461 119.504C240.792 120.129 240.822 120.87 240.843 121.581C240.855 121.954 240.863 122.341 240.7 122.673C241.421 122.671 242.995 123.384 243.344 124.034C244.083 125.416 243.513 127.349 242.122 127.354C242.122 127.354 244.334 127.601 244.781 129.315C244.927 130.896 243.724 131.431 242.926 131.787C242.926 131.787 245.078 134.32 240.897 135.316C239.693 135.602 238.508 135.93 237.279 136.059C236.077 138.185 233.858 140.137 231.568 140.865C231.8 142.791 231.031 149.37 230.784 151.295" stroke="#2B2C61" stroke-width="1.25" stroke-miterlimit="10"/>
<path d="M236.07 121.066C234.089 121.821 229.455 123.477 231.696 125.169C232.431 125.721 234.056 125.114 235.164 124.769C237.016 124.19 238.926 123.477 240.697 122.674" stroke="#2B2C61" stroke-width="1.25" stroke-miterlimit="10" stroke-linecap="round"/>
<path d="M234.73 124.907C234.224 125.23 232.322 126.502 232.874 127.888C233.067 128.374 233.674 128.557 234.181 128.62C234.688 128.682 235.205 128.592 235.709 128.504C238.129 128.077 240.552 127.65 242.971 127.223" stroke="#2B2C61" stroke-width="1.25" stroke-miterlimit="10" stroke-linecap="round"/>
<path d="M243.368 131.508C240.747 131.917 238.091 132.072 235.44 131.972C235.027 131.955 234.591 131.928 234.235 131.714C233.791 131.451 233.53 130.929 233.465 130.408C233.399 129.888 233.501 129.354 233.637 128.848" stroke="#2B2C61" stroke-width="1.25" stroke-miterlimit="10" stroke-linecap="round"/>
<path d="M237.424 136.046C237.021 136.006 236.609 135.999 236.211 135.916C235.813 135.833 235.418 135.666 235.143 135.357C234.595 134.738 234.717 133.702 235.239 133.064C235.761 132.426 236.586 132.127 237.388 132.005" stroke="#2B2C61" stroke-width="1.25" stroke-miterlimit="10" stroke-linecap="round"/>
<path d="M225.249 121.53C227.826 125.612 228.474 130.912 226.963 135.521" stroke="#2B2C61" stroke-width="1.25" stroke-miterlimit="10" stroke-linecap="round"/>
<path fill-rule="evenodd" clip-rule="evenodd" d="M142.42 239.497C144.123 204.706 151.506 209.82 141.196 155.581C138.076 139.172 140.176 129.792 141.196 120.331C141.196 120.331 152.203 118.77 152.22 118.832C154.732 120.331 159.154 132.168 165.251 149.574C172.8 171.125 169.108 208.64 179.976 244.081C179.976 244.081 155.968 244.081 141.196 243.985L142.42 239.497Z" fill="#DADBEC" stroke="#2B2C61" stroke-width="1.25" stroke-miterlimit="10"/>
<path fill-rule="evenodd" clip-rule="evenodd" d="M139.013 118.081C141.498 120.032 142.174 120.342 145.275 120.328C143.936 130.904 143.94 143.324 145.194 153.91C146.425 164.303 148.897 174.513 150.07 184.91C152.67 207.933 149.216 221.725 145.096 243.746C145.096 243.746 109.458 243.746 102.981 234.676C102.981 234.676 110.968 190.088 120.439 164.579C109.414 174.92 84.8037 207.275 76.6113 231.974L55.4072 226.396C67.5445 161.218 100.203 126.433 139.009 118.081" fill="white"/>
<path d="M139.013 118.081C141.498 120.032 142.174 120.342 145.275 120.328C143.936 130.904 143.94 143.324 145.194 153.91C146.425 164.303 148.897 174.513 150.07 184.91C152.67 207.933 149.216 221.725 145.096 243.746C145.096 243.746 109.458 243.746 102.981 234.676C102.981 234.676 110.968 190.088 120.439 164.579C109.414 174.92 84.8037 207.275 76.6113 231.974L55.4072 226.396C67.5445 161.218 100.203 126.433 139.009 118.081" stroke="#2B2C61" stroke-width="1.25" stroke-miterlimit="10"/>
<path d="M139.449 115.827C136.341 116.779 136.213 119.288 136.079 120.336C135.013 128.613 134.939 137.02 135.857 145.314" stroke="#2B2C61" stroke-width="1.25" stroke-miterlimit="10"/>
<path d="M133.52 143.804C132.776 144.572 132.645 145.748 132.558 146.827C132.47 147.871 132.386 148.94 132.638 149.96C132.891 150.981 133.536 151.953 134.505 152.297C137.831 153.473 139.435 148.23 139.449 145.769C139.465 142.614 135.635 141.618 133.52 143.807V143.804Z" fill="#2B2C61"/>
<path fill-rule="evenodd" clip-rule="evenodd" d="M121.782 163.932C121.782 163.932 123.84 166.231 129.601 165.81C129.601 165.81 120.142 174.147 117.236 179.956L121.782 163.932Z" fill="#DADBEC"/>
<path d="M119.805 161.55C120.054 162.649 121.036 163.404 122.014 163.925C124.365 165.176 127.109 165.638 129.729 165.218" stroke="#2B2C61" stroke-width="1.25" stroke-miterlimit="10" stroke-linecap="round"/>
<path d="M63.4902 218.127C70.2331 220.116 75.2206 220.968 80.3694 222.305" stroke="#2B2C61" stroke-width="1.25" stroke-miterlimit="10" stroke-linecap="round"/>
<path fill-rule="evenodd" clip-rule="evenodd" d="M156.651 118.248C156.651 118.248 182.338 115.642 211.236 150.948L214.626 141.882L243.179 151.713C243.179 151.713 232.619 190.965 232.299 192.199C227.614 210.414 204.235 217.832 182.338 170.838C182.338 170.838 184.588 184.502 201.067 243.789H176.927C176.927 243.789 174.532 187.132 153.859 121.513L156.651 118.248Z" fill="white" stroke="#2B2C61" stroke-width="1.25" stroke-miterlimit="10"/>
<path d="M153.866 163.332C152.205 157.43 152.366 150.074 153.412 144.104C153.87 141.487 154.707 137.158 157.031 135.979C159.587 134.683 163.821 135.148 165.479 137.527C167.137 139.905 168.95 143.8 169.373 146.689C169.979 150.805 170.463 156.069 171.068 160.181" stroke="#2B2C61" stroke-width="1.25" stroke-miterlimit="10"/>
<path d="M153.092 162.601C152.716 162.99 152.652 163.583 152.605 164.128C152.561 164.655 152.517 165.196 152.645 165.71C152.773 166.224 153.099 166.717 153.59 166.892C155.272 167.485 156.082 164.838 156.089 163.593C156.099 161.997 154.162 161.494 153.092 162.601Z" fill="#2B2C61"/>
<path d="M169.504 160.56C169.107 160.97 169.04 161.594 168.993 162.167C168.945 162.722 168.902 163.29 169.036 163.832C169.171 164.373 169.514 164.89 170.028 165.073C171.797 165.696 172.652 162.911 172.658 161.601C172.668 159.926 170.63 159.395 169.507 160.557L169.504 160.56Z" fill="#2B2C61"/>
<path d="M170.399 153.531C170.856 153.369 171.132 152.894 171.054 152.404L170.368 148.071C168.088 133.648 161.601 131.939 156.146 134.838C151.465 137.327 151.515 150.867 151.623 154.655C151.64 155.207 152.08 155.641 152.618 155.641H152.793C153.338 155.641 153.782 155.196 153.789 154.638C153.826 151.267 154.209 140.415 157.649 137.64C161.735 134.345 166.101 138.878 167.318 142.98C168.216 145.999 168.821 150.522 169.08 152.694C169.158 153.342 169.797 153.745 170.395 153.528L170.399 153.531Z" fill="#2B2C61"/>
<path d="M160.636 134.955C161.104 130.322 160.054 124.755 157.872 120.842C156.557 118.481 154.892 116.113 152.555 115.399" stroke="#2B2C61" stroke-width="1.25" stroke-miterlimit="10"/>
<path fill-rule="evenodd" clip-rule="evenodd" d="M201.812 171.371L204.157 172.47C204.157 172.47 205.737 164.735 206.749 162.549L201.816 171.371H201.812Z" fill="#DADBEC"/>
<path d="M178.48 168.365C180.253 168.389 182.116 167.868 183.246 166.655" stroke="#2B2C61" stroke-width="1.25" stroke-miterlimit="10" stroke-linecap="round"/>
<path d="M201.069 171.102C202.391 172.312 204.187 173.104 205.932 172.801" stroke="#2B2C61" stroke-width="1.25" stroke-miterlimit="10" stroke-linecap="round"/>
<path d="M211.71 150.478L203.813 172.67" stroke="#2B2C61" stroke-width="1.25" stroke-miterlimit="10" stroke-linecap="round"/>
<path d="M212.611 150.202L234.256 158.096" stroke="#2B2C61" stroke-width="1.25" stroke-miterlimit="10" stroke-linecap="round"/>
<path fill-rule="evenodd" clip-rule="evenodd" d="M155.921 120.384L153.859 110.105C163.057 107.988 167.57 96.5644 167.57 88.4774C167.57 77.712 159.055 68.9839 148.552 68.9839C138.049 68.9839 129.534 77.712 129.534 88.4774C129.534 88.5429 129.537 88.6084 129.537 88.6773C129.04 88.5532 128.522 88.4774 127.984 88.4774C124.379 88.4774 121.456 91.4729 121.456 95.1683C121.456 98.8636 124.379 101.859 127.984 101.859C129.951 101.859 131.707 100.963 132.904 99.5565C134.118 101.352 135.618 102.931 137.336 104.22V120.387C137.336 120.387 150.304 127.654 155.91 120.387L155.921 120.384Z" fill="white" stroke="#2B2C61" stroke-width="1.25" stroke-miterlimit="10"/>
<path d="M125.216 93.9824C125.129 94.6305 125.126 95.313 125.371 95.9163C125.643 96.5988 126.232 97.1365 126.925 97.3434C127.614 97.5502 128.394 97.4123 128.98 96.9883" stroke="#2B2C61" stroke-width="1.25" stroke-miterlimit="10" stroke-linecap="round"/>
<path d="M132.91 99.553C134.003 98.5912 133.896 98.3258 134.844 97.2158" stroke="#2B2C61" stroke-width="1.25" stroke-miterlimit="10" stroke-linecap="round"/>
<path d="M153.859 110.105C149.719 110.884 147.23 109.191 144.694 108.216" stroke="#2B2C61" stroke-width="1.25" stroke-miterlimit="10" stroke-linecap="round"/>
<path fill-rule="evenodd" clip-rule="evenodd" d="M142.489 90.4525C142.667 90.6972 142.889 90.9489 143.218 91.0316C143.625 91.1316 144.066 90.9316 144.298 90.6421C144.991 89.7803 144.866 87.2949 143.185 87.1432C141.093 86.9536 141.917 89.67 142.485 90.4559L142.489 90.4525Z" fill="#2B2C61"/>
<path fill-rule="evenodd" clip-rule="evenodd" d="M142.381 85.1197C143.178 84.8991 144.056 85.0025 144.783 85.4024C144.318 84.5406 143.642 83.6513 142.687 83.5478C142.247 83.4996 141.796 83.634 141.42 83.8719C140.982 84.1476 139.782 85.5679 140.232 86.1883C140.495 86.5468 141.847 85.268 142.378 85.1197H142.381Z" fill="#2B2C61"/>
<path fill-rule="evenodd" clip-rule="evenodd" d="M156.761 88.4395C156.869 88.7222 157.023 89.0255 157.319 89.191C157.686 89.3978 158.163 89.322 158.459 89.1014C159.347 88.4533 159.858 86.0196 158.271 85.4233C156.297 84.6821 156.408 87.5226 156.758 88.4361L156.761 88.4395Z" fill="#2B2C61"/>
<path fill-rule="evenodd" clip-rule="evenodd" d="M158.012 83.2585C158.836 83.2585 159.66 83.5929 160.259 84.172C160.03 83.2171 159.603 82.1761 158.708 81.8211C158.295 81.6556 157.827 81.6659 157.404 81.7969C156.913 81.9451 155.392 83 155.672 83.717C155.833 84.1306 157.461 83.2585 158.012 83.2585Z" fill="#2B2C61"/>
<path d="M151.646 83.4136C151.579 86.3402 151.566 89.4633 153.113 91.9211C153.395 92.3727 153.732 92.7967 153.906 93.2999C154.085 93.8032 154.068 94.4237 153.705 94.8098C153.503 95.0235 153.224 95.1372 152.948 95.2269C152.255 95.4509 151.532 95.5716 150.806 95.575" stroke="#2B2C61" stroke-width="1.25" stroke-miterlimit="10" stroke-linecap="round"/>
<path fill-rule="evenodd" clip-rule="evenodd" d="M147.314 100.722C147.314 100.722 148.794 104.445 153.64 103.342C158.487 102.239 157.41 99.5532 157.41 99.5532L147.314 100.722Z" stroke="#2B2C61" stroke-width="1.25" stroke-miterlimit="10" stroke-linecap="round"/>
<path fill-rule="evenodd" clip-rule="evenodd" d="M138.489 62.231C133.549 64.9542 129.446 68.0808 127.788 73.572C127.714 73.8133 127.643 74.0615 127.475 74.2442C127.31 74.4235 127.078 74.5166 126.856 74.6131C123.197 76.1988 120.951 80.3008 121.563 84.3202C121.913 86.6229 122.962 89.7391 124.966 91.0869C126.154 91.8832 129.998 93.3551 131.366 92.4933C132.049 92.0624 132.278 90.98 132.321 89.7598C132.49 89.5081 132.523 89.1634 132.321 88.736C132.278 87.3675 132.099 85.992 132.126 85.2578C132.184 83.586 132.56 82.0175 133.172 80.5628C134.238 78.598 135.735 76.5883 137.548 74.9371C142.078 70.804 152.116 69.4217 158.819 74.7441C160.309 76.802 160.83 79.0771 161.829 81.6383C163.12 84.9476 165.326 87.5881 168.898 88.2223C169.399 88.312 169.86 88.3154 170.29 88.2637C170.97 88.3602 171.501 88.1431 171.905 87.688C173.509 86.6711 174.363 84.5511 174.481 82.5311C175.91 57.8152 147.993 56.9879 138.489 62.231Z" fill="#2B2C61"/>
<path d="M49.2715 246.692C49.7316 246.574 50.1631 246.363 50.582 246.142C53.0696 244.828 55.3193 243.091 57.5532 241.361" stroke="#191947" stroke-width="1.25" stroke-miterlimit="10" stroke-linecap="round"/>
<path d="M47.0625 243.729C47.5226 243.612 47.9541 243.4 48.373 243.179C50.8607 241.865 53.1103 240.128 55.3442 238.398" stroke="#191947" stroke-width="1.25" stroke-miterlimit="10" stroke-linecap="round"/>
<path d="M48.25 236.274C49.8683 236.459 51.4992 236.255 53.0032 235.672" stroke="#191947" stroke-width="1.25" stroke-miterlimit="10" stroke-linecap="round"/>
<path d="M146.291 219.763C143.503 214.941 139.222 211.063 134.248 208.853C132.62 208.129 130.76 207.581 129.099 208.216C127.417 208.857 126.311 210.622 125.948 212.449C125.585 214.272 125.85 216.168 126.187 217.998C127.895 227.226 131.497 235.672 135.26 244.217C146.355 244.228 158.384 244.066 158.384 244.066C155.018 233.872 150.898 226.609 146.291 219.763Z" fill="#39A38D" stroke="#2B2C61" stroke-width="1.25" stroke-linecap="round" stroke-linejoin="round"/>
<path d="M158.176 244.19C153.613 236.14 149.489 227.319 145.75 218.826C144.149 215.189 142.595 211.369 142.659 207.371C142.706 204.458 143.927 201.252 146.537 200.197C148.323 199.473 150.357 199.921 152.133 200.673C155.852 202.248 158.953 205.061 161.795 208.012C171.275 217.84 178.758 229.925 183.362 244.024C173.629 244.193 165.955 244.276 158.176 244.193V244.19Z" fill="#39A38D" stroke="#2B2C61" stroke-width="1.25" stroke-linecap="round" stroke-linejoin="round"/>
<path d="M147.898 244.217C143.244 231.825 137.224 219.984 129.993 209.005" stroke="#2B2C61" stroke-width="1.25" stroke-linecap="round" stroke-linejoin="round"/>
<path d="M141.505 230.377C137.15 228.812 132.795 227.243 128.439 225.678" stroke="#2B2C61" stroke-width="1.25" stroke-linecap="round" stroke-linejoin="round"/>
<path d="M150.902 229.684C148.911 232.476 146.917 235.265 144.926 238.057" stroke="#2B2C61" stroke-width="1.25" stroke-linecap="round" stroke-linejoin="round"/>
<path d="M171.049 243.521C162.608 229.901 154.167 216.282 145.726 202.662" stroke="#2B2C61" stroke-width="1.25" stroke-linecap="round" stroke-linejoin="round"/>
<path d="M161.276 208.212C160.647 213.041 159.891 217.85 159.003 222.635" stroke="#2B2C61" stroke-width="1.25" stroke-linecap="round" stroke-linejoin="round"/>
<path d="M162.679 230.418C158.099 229.064 153.633 227.292 149.345 225.13" stroke="#2B2C61" stroke-width="1.25" stroke-linecap="round" stroke-linejoin="round"/>
<path d="M178.297 231.184C176.118 235.406 173.77 239.536 171.265 243.559" stroke="#2B2C61" stroke-width="1.25" stroke-linecap="round" stroke-linejoin="round"/>
</g>
<defs>
<clipPath id="clip0_4649_24710">
<rect width="282.818" height="263.331" fill="white" transform="translate(0.0908203)"/>
</clipPath>
</defs>
</svg>
