<svg width="390" height="89" viewBox="0 0 390 89" fill="none" xmlns="http://www.w3.org/2000/svg">
<mask id="path-1-outside-1_3975_38310" maskUnits="userSpaceOnUse" x="0" y="0" width="390" height="89" fill="black">
<rect fill="white" width="390" height="89"/>
<path d="M0 0H390V88H0V0Z"/>
</mask>
<path d="M0 0H390V88H0V0Z" fill="white"/>
<path d="M390 87H0V89H390V87Z" fill="#EEF0F1" mask="url(#path-1-outside-1_3975_38310)"/>
<g clip-path="url(#clip0_3975_38310)">
<path d="M32 32.3206H35.5901V51.984H32V32.3206Z" fill="#2C2A32"/>
<path d="M38.3558 37.6235H41.598V39.391C41.9826 38.7042 42.5321 38.1821 43.2465 37.8341C43.9609 37.4861 44.7668 37.3029 45.6644 37.3029C46.7176 37.3029 47.6609 37.5319 48.476 37.9898C49.2911 38.4477 49.9322 39.0888 50.3902 39.9039C50.8481 40.719 51.0771 41.6715 51.0771 42.7431V51.984H47.6151V43.5673C47.6151 42.6149 47.3495 41.8639 46.8092 41.3143C46.2688 40.7557 45.5728 40.4809 44.7119 40.4809C43.851 40.4809 43.1458 40.7648 42.6146 41.3235C42.0742 41.8913 41.8086 42.6332 41.8086 43.5673V51.984H38.3467V37.6235H38.3558Z" fill="#2C2A32"/>
<path d="M53.2201 37.6235H56.4622V39.391C56.8469 38.7042 57.3964 38.1821 58.1108 37.8341C58.8251 37.4861 59.6311 37.3029 60.5286 37.3029C61.5818 37.3029 62.5252 37.5319 63.3403 37.9898C64.1554 38.4477 64.7965 39.0888 65.2544 39.9039C65.7123 40.719 65.9413 41.6715 65.9413 42.7431V51.984H62.4794V43.5673C62.4794 42.6149 62.2138 41.8639 61.6734 41.3143C61.1331 40.7557 60.437 40.4809 59.5761 40.4809C58.7152 40.4809 58.01 40.7648 57.4788 41.3235C56.9385 41.8913 56.6729 42.6332 56.6729 43.5673V51.984H53.2109V37.6235H53.2201Z" fill="#2C2A32"/>
<path d="M71.4916 51.2972C70.3834 50.6286 69.5225 49.7219 68.9089 48.5771C68.2953 47.4322 67.9839 46.1684 67.9839 44.7763C67.9839 43.3842 68.2953 42.0562 68.9181 40.9388C69.5408 39.8215 70.3926 38.9331 71.4824 38.2829C72.5632 37.6326 73.7721 37.3029 75.1092 37.3029C76.6021 37.3029 77.8751 37.6235 78.91 38.2645C79.9449 38.9056 80.7417 39.7574 81.2821 40.8106C81.8316 41.8639 82.0972 43.0361 82.0972 44.3183C82.0972 44.5839 82.088 44.8404 82.0606 45.0968C82.0331 45.3533 81.9873 45.5731 81.914 45.7654H71.5649C71.6656 46.8186 72.0778 47.6612 72.783 48.3023C73.4882 48.9342 74.3582 49.2548 75.3931 49.2548C76.1808 49.2548 76.8585 49.0808 77.408 48.7419C77.9575 48.4031 78.3971 47.9543 78.7177 47.4048L81.5111 48.7786C81.0714 49.7951 80.3021 50.6377 79.2031 51.2972C78.1041 51.9566 76.8219 52.2863 75.3657 52.2863C73.9095 52.2863 72.5906 51.9566 71.4824 51.2788L71.4916 51.2972ZM72.8745 40.9297C72.2518 41.4517 71.8396 42.1844 71.6473 43.1369H78.4063C78.333 42.2577 77.9942 41.5433 77.3897 40.9846C76.7852 40.426 76.0251 40.1512 75.1092 40.1512C74.2483 40.1512 73.5065 40.4076 72.8837 40.9297H72.8745Z" fill="#2C2A32"/>
<path d="M84.0571 37.6236H87.2993V39.6568C87.6656 38.8325 88.1876 38.2556 88.8562 37.9442C89.5248 37.6236 90.2941 37.4679 91.1825 37.4679H92.0251V40.5269H90.7887C89.8179 40.5269 89.0302 40.8291 88.4258 41.4336C87.8213 42.038 87.5191 42.8898 87.5191 43.9796V51.9751H84.0571V37.6236Z" fill="#2C2A32"/>
<path d="M134.447 51.3062C133.312 50.6468 132.423 49.7493 131.773 48.6136C131.123 47.478 130.793 46.1958 130.793 44.7762C130.793 43.3566 131.123 42.0744 131.773 40.9479C132.423 39.8214 133.321 38.933 134.447 38.2828C135.583 37.6325 136.865 37.3028 138.285 37.3028C139.301 37.3028 140.254 37.4768 141.133 37.834C142.012 38.182 142.773 38.6858 143.405 39.3269C144.036 39.968 144.504 40.7098 144.806 41.5524L141.774 42.8712C141.49 42.1477 141.051 41.5707 140.437 41.1311C139.833 40.6915 139.109 40.4717 138.285 40.4717C137.525 40.4717 136.856 40.6549 136.27 41.0304C135.684 41.3967 135.217 41.9096 134.887 42.5598C134.557 43.2101 134.383 43.9611 134.383 44.8037C134.383 45.6463 134.548 46.3698 134.887 47.0292C135.226 47.6886 135.684 48.2015 136.27 48.577C136.856 48.9433 137.534 49.1357 138.285 49.1357C139.109 49.1357 139.833 48.9159 140.437 48.4854C141.042 48.055 141.49 47.4596 141.774 46.7086L144.806 48.0824C144.522 48.8884 144.064 49.6211 143.432 50.2622C142.8 50.9033 142.04 51.407 141.161 51.7642C140.281 52.1213 139.32 52.3045 138.285 52.3045C136.856 52.3045 135.583 51.9748 134.447 51.3154V51.3062Z" fill="#2C2A32"/>
<path d="M146.317 32H149.779V39.0429C150.182 38.4659 150.722 38.0263 151.391 37.7332C152.059 37.4402 152.81 37.2936 153.635 37.2936C154.688 37.2936 155.631 37.5226 156.446 37.9805C157.261 38.4385 157.902 39.0796 158.36 39.8947C158.818 40.7098 159.047 41.6623 159.047 42.7338V51.9748H155.585V43.5581C155.585 42.6056 155.311 41.8546 154.77 41.3051C154.23 40.7556 153.534 40.4716 152.682 40.4716C151.83 40.4716 151.143 40.7556 150.594 41.3142C150.044 41.8821 149.779 42.6239 149.779 43.5581V51.9748H146.317V32Z" fill="#2C2A32"/>
<path d="M164.332 51.0039C163.178 50.3537 162.262 49.4653 161.584 48.3388C160.906 47.2123 160.567 45.9301 160.567 44.483C160.567 43.036 160.906 41.7538 161.584 40.6273C162.262 39.5008 163.168 38.6124 164.313 37.9622C165.458 37.3119 166.74 36.9822 168.169 36.9822C169.598 36.9822 170.852 37.3119 171.997 37.9622C173.142 38.6124 174.049 39.5008 174.726 40.6273C175.404 41.7538 175.743 43.036 175.743 44.483C175.743 45.9301 175.395 47.2123 174.717 48.3479C174.03 49.4836 173.115 50.372 171.97 51.0131C170.825 51.6542 169.561 51.9747 168.169 51.9747C166.777 51.9747 165.486 51.645 164.332 50.9948V51.0039ZM170.22 48.2564C170.807 47.89 171.274 47.368 171.622 46.7086C171.961 46.0491 172.135 45.3073 172.135 44.483C172.135 43.6588 171.961 42.9169 171.622 42.2667C171.274 41.6164 170.816 41.1035 170.22 40.7189C169.634 40.3434 168.947 40.151 168.178 40.151C167.409 40.151 166.713 40.3434 166.108 40.7189C165.504 41.0944 165.028 41.6164 164.68 42.2667C164.341 42.9169 164.167 43.6588 164.167 44.483C164.167 45.3073 164.341 46.0491 164.68 46.7086C165.028 47.368 165.495 47.8809 166.108 48.2564C166.713 48.6227 167.409 48.815 168.178 48.815C168.947 48.815 169.634 48.6319 170.22 48.2564Z" fill="#2C2A32"/>
<path d="M177.273 37.6233H180.515V39.6565C180.881 38.8322 181.403 38.2553 182.072 37.9439C182.741 37.6233 183.51 37.4676 184.398 37.4676H185.241V40.5357H184.004C183.034 40.5357 182.246 40.838 181.642 41.4424C181.037 42.0469 180.735 42.8986 180.735 43.9885V51.9839H177.273V37.6233Z" fill="#2C2A32"/>
<path d="M103.702 47.7528L104.728 44.5839L107.503 36.2954L110.278 44.5839L111.029 46.8827C112.027 46.3973 113.172 46.0493 114.546 45.9669L109.82 32.3206H105.177L99.4893 48.9342C100.588 49.6761 101.403 50.2714 102.759 50.5278L103.693 47.7619L103.702 47.7528Z" fill="#2C2A32"/>
<path d="M120.013 43.5582C120.013 42.624 120.279 41.8822 120.819 41.3143C121.36 40.7557 122.056 40.4717 122.917 40.4717C123.777 40.4717 124.474 40.7465 125.014 41.3052C125.554 41.8638 125.82 42.6148 125.82 43.5582V51.9749H129.282V42.7339C129.282 41.6624 129.053 40.719 128.595 39.8948C128.137 39.0796 127.496 38.4385 126.681 37.9806C125.866 37.5227 124.922 37.2937 123.869 37.2937C122.972 37.2937 122.166 37.4677 121.451 37.8249C120.737 38.173 120.187 38.695 119.803 39.3819V37.6143H116.561V46.0859C117.788 46.2783 118.951 46.6538 120.004 47.2491" fill="#2C2A32"/>
<path d="M120.123 49.2913C118.557 48.4121 116.78 47.9725 114.848 47.9725C111.716 47.9725 109.738 49.3737 107.988 50.6193C106.477 51.6908 105.177 52.6067 103.253 52.6067C100.671 52.6067 98.7198 51.4894 96.0821 48.5037L96.3569 48.2747L97.8864 46.965L91.0083 44.8036L92.1073 51.9198L93.6276 50.6101L93.994 50.2987C96.3111 52.9272 99.0403 55.3543 103.244 55.3543C106.047 55.3543 107.924 54.0263 109.573 52.8631C111.194 51.7183 112.595 50.72 114.848 50.72C116.332 50.72 117.614 51.0406 118.786 51.6908L120.123 52.451V49.2913Z" fill="#6D6DB4"/>
<path fill-rule="evenodd" clip-rule="evenodd" d="M98.2805 56.3892V59.5397C99.8466 60.4189 101.623 60.8585 103.556 60.8585C106.671 60.8585 108.656 59.4553 110.402 58.2212L110.416 58.2117L110.432 58.1998C111.927 57.1424 113.225 56.2243 115.151 56.2243C117.479 56.2243 119.282 57.1258 121.536 59.4729L121.103 59.7413L119.391 60.8037L125.866 64.0001V56.7923L124.162 57.8455L123.92 57.996C121.707 55.5867 119.079 53.4859 115.16 53.4859C112.357 53.4859 110.48 54.8047 108.831 55.977C107.21 57.131 105.809 58.1201 103.556 58.1201C102.072 58.1201 100.79 57.7996 99.6177 57.1493L98.2805 56.3892Z" fill="#6D6DB4"/>
</g>
<defs>
<clipPath id="clip0_3975_38310">
<rect width="154" height="32" fill="white" transform="translate(32 32)"/>
</clipPath>
</defs>
</svg>
