<svg width="140" height="30" viewBox="0 0 140 30" fill="none" xmlns="http://www.w3.org/2000/svg">
<g id="Group 99">
<g id="Group">
<path id="Vector" d="M0 0.863281H3.2696V18.771H0V0.863281Z" fill="#231F20"/>
<path id="Vector_2" d="M5.78861 5.69281H8.74126V7.30258C9.09158 6.67702 9.59203 6.2016 10.2426 5.88465C10.8932 5.5677 11.6272 5.40088 12.4446 5.40088C13.4038 5.40088 14.2629 5.6094 15.0052 6.02644C15.7475 6.44348 16.3314 7.02734 16.7484 7.76967C17.1655 8.512 17.374 9.37945 17.374 10.3553V18.7712H14.2212V11.106C14.2212 10.2386 13.9793 9.5546 13.4872 9.05415C12.9951 8.54537 12.3612 8.29514 11.5771 8.29514C10.7931 8.29514 10.1509 8.55371 9.66709 9.0625C9.17499 9.57963 8.9331 10.2552 8.9331 11.106V18.7712H5.78027V5.69281H5.78861Z" fill="#231F20"/>
<path id="Vector_3" d="M19.3257 5.69281H22.2784V7.30258C22.6287 6.67702 23.1291 6.2016 23.7797 5.88465C24.4303 5.5677 25.1643 5.40088 25.9817 5.40088C26.9409 5.40088 27.8 5.6094 28.5423 6.02644C29.2847 6.44348 29.8685 7.02734 30.2856 7.76967C30.7026 8.512 30.9111 9.37945 30.9111 10.3553V18.7712H27.7583V11.106C27.7583 10.2386 27.5164 9.5546 27.0243 9.05415C26.5322 8.54537 25.8983 8.29514 25.1142 8.29514C24.3302 8.29514 23.688 8.55371 23.2042 9.0625C22.7121 9.57963 22.4702 10.2552 22.4702 11.106V18.7712H19.3174V5.69281H19.3257Z" fill="#231F20"/>
<path id="Vector_4" d="M35.9655 18.1456C34.9563 17.5368 34.1723 16.711 33.6134 15.6684C33.0546 14.6258 32.771 13.4748 32.771 12.207C32.771 10.9392 33.0546 9.72976 33.6218 8.71218C34.1889 7.6946 34.9646 6.88554 35.9572 6.29335C36.9414 5.70115 38.0424 5.40088 39.2601 5.40088C40.6197 5.40088 41.7791 5.69281 42.7216 6.27666C43.6641 6.86052 44.3898 7.63622 44.8819 8.59541C45.3823 9.5546 45.6242 10.6222 45.6242 11.7899C45.6242 12.0318 45.6158 12.2654 45.5908 12.4989C45.5658 12.7325 45.5241 12.9326 45.4574 13.1078H36.0323C36.124 14.067 36.4993 14.8343 37.1416 15.4182C37.7838 15.9937 38.5762 16.2856 39.5187 16.2856C40.236 16.2856 40.8532 16.1272 41.3537 15.8186C41.8541 15.5099 42.2545 15.1012 42.5464 14.6008L45.0904 15.8519C44.69 16.7777 43.9894 17.5451 42.9885 18.1456C41.9876 18.7462 40.8199 19.0464 39.4937 19.0464C38.1675 19.0464 36.9664 18.7462 35.9572 18.129L35.9655 18.1456ZM37.225 8.70384C36.6578 9.17927 36.2825 9.84653 36.1073 10.714H42.2628C42.1961 9.91326 41.8875 9.26268 41.337 8.75389C40.7865 8.2451 40.0942 7.99487 39.2601 7.99487C38.4761 7.99487 37.8005 8.22841 37.2333 8.70384H37.225Z" fill="#231F20"/>
<path id="Vector_5" d="M47.4092 5.69258H50.3618V7.54424C50.6955 6.79356 51.1709 6.26809 51.7798 5.9845C52.3886 5.69258 53.0893 5.55078 53.8983 5.55078H54.6657V8.33661H53.5397C52.6556 8.33661 51.9382 8.61186 51.3877 9.16235C50.8373 9.71285 50.562 10.4885 50.562 11.4811V18.7626H47.4092V5.69258Z" fill="#231F20"/>
</g>
<path id="Vector_6" d="M93.3006 18.154C92.2664 17.5534 91.4573 16.736 90.8651 15.7018C90.2729 14.6675 89.9727 13.4998 89.9727 12.207C89.9727 10.9142 90.2729 9.74644 90.8651 8.72052C91.4573 7.6946 92.2747 6.88554 93.3006 6.29335C94.3349 5.70115 95.5026 5.40088 96.7954 5.40088C97.7213 5.40088 98.5887 5.55935 99.3894 5.88465C100.19 6.2016 100.882 6.66034 101.458 7.2442C102.033 7.82806 102.459 8.50366 102.734 9.27102L99.9733 10.4721C99.7147 9.81317 99.3144 9.2877 98.7555 8.88734C98.205 8.48698 97.5461 8.2868 96.7954 8.2868C96.1032 8.2868 95.4943 8.45362 94.9605 8.79559C94.4266 9.12922 94.0013 9.59631 93.701 10.1885C93.4007 10.7807 93.2423 11.4646 93.2423 12.232C93.2423 12.9994 93.3924 13.6583 93.701 14.2588C94.0096 14.8594 94.4266 15.3264 94.9605 15.6684C95.4943 16.0021 96.1115 16.1772 96.7954 16.1772C97.5461 16.1772 98.205 15.977 98.7555 15.585C99.306 15.193 99.7147 14.6508 99.9733 13.9669L102.734 15.218C102.476 15.952 102.058 16.6193 101.483 17.2031C100.907 17.787 100.215 18.2457 99.4145 18.571C98.6137 18.8963 97.738 19.0631 96.7954 19.0631C95.4943 19.0631 94.3349 18.7629 93.3006 18.1623V18.154Z" fill="#231F20"/>
<path id="Vector_7" d="M104.11 0.571289H107.263V6.98537C107.63 6.4599 108.122 6.05954 108.731 5.79264C109.34 5.52573 110.023 5.39228 110.774 5.39228C111.733 5.39228 112.592 5.6008 113.335 6.01784C114.077 6.43488 114.661 7.01874 115.078 7.76107C115.495 8.5034 115.704 9.37085 115.704 10.3467V18.7626H112.551V11.0974C112.551 10.2299 112.301 9.546 111.808 9.04556C111.316 8.54511 110.682 8.28654 109.907 8.28654C109.131 8.28654 108.505 8.54511 108.005 9.0539C107.505 9.57103 107.263 10.2466 107.263 11.0974V18.7626H104.11V0.571289Z" fill="#231F20"/>
<path id="Vector_8" d="M120.516 17.8782C119.466 17.286 118.631 16.4769 118.014 15.451C117.397 14.4251 117.088 13.2574 117.088 11.9395C117.088 10.6217 117.397 9.45396 118.014 8.42804C118.631 7.40212 119.457 6.59306 120.5 6.00087C121.542 5.40867 122.71 5.1084 124.011 5.1084C125.312 5.1084 126.455 5.40867 127.498 6.00087C128.54 6.59306 129.366 7.40212 129.983 8.42804C130.6 9.45396 130.909 10.6217 130.909 11.9395C130.909 13.2574 130.592 14.4251 129.975 15.4593C129.349 16.4936 128.515 17.3027 127.473 17.8865C126.43 18.4704 125.279 18.7623 124.011 18.7623C122.743 18.7623 121.567 18.462 120.516 17.8698V17.8782ZM125.88 15.3759C126.413 15.0423 126.839 14.5669 127.156 13.9663C127.464 13.3658 127.623 12.6902 127.623 11.9395C127.623 11.1889 127.464 10.5132 127.156 9.92105C126.839 9.32885 126.422 8.86176 125.88 8.51145C125.346 8.16948 124.72 7.99432 124.02 7.99432C123.319 7.99432 122.685 8.16948 122.135 8.51145C121.584 8.85342 121.15 9.32885 120.833 9.92105C120.525 10.5132 120.366 11.1889 120.366 11.9395C120.366 12.6902 120.525 13.3658 120.833 13.9663C121.15 14.5669 121.576 15.034 122.135 15.3759C122.685 15.7096 123.319 15.8847 124.02 15.8847C124.72 15.8847 125.346 15.7179 125.88 15.3759Z" fill="#231F20"/>
<path id="Vector_9" d="M132.302 5.69258H135.255V7.54424C135.589 6.79356 136.064 6.26809 136.673 5.9845C137.282 5.69258 137.982 5.55078 138.791 5.55078H139.559V8.34495H138.433C137.549 8.34495 136.831 8.6202 136.281 9.17069C135.73 9.72119 135.455 10.4969 135.455 11.4894V18.771H132.302V5.69258Z" fill="#231F20"/>
<g id="Group_2">
<path id="Vector_10" d="M65.3002 14.9176L66.2343 12.0316L68.7616 4.48319L71.2889 12.0316L71.9728 14.1252C72.882 13.6831 73.9246 13.3662 75.1757 13.2911L70.8718 0.863281H66.643L61.4634 15.9935C62.4643 16.6691 63.2066 17.2113 64.441 17.4448L65.2918 14.9259L65.3002 14.9176Z" fill="black"/>
<path id="Vector_11" d="M80.1552 11.0977C80.1552 10.2469 80.3971 9.57132 80.8892 9.05419C81.3813 8.54541 82.0152 8.28684 82.7993 8.28684C83.5833 8.28684 84.2172 8.53706 84.7093 9.04585C85.2014 9.55464 85.4433 10.2386 85.4433 11.0977V18.7629H88.5961V10.347C88.5961 9.37115 88.3876 8.51204 87.9706 7.76137C87.5535 7.01904 86.9697 6.43518 86.2273 6.01814C85.485 5.6011 84.6259 5.39258 83.6667 5.39258C82.8493 5.39258 82.1153 5.55105 81.4647 5.87635C80.8141 6.1933 80.3137 6.66872 79.9634 7.29428V5.68451H77.0107V13.3998C78.1284 13.5749 79.1877 13.9169 80.1469 14.459" fill="black"/>
</g>
<path id="Vector_12" d="M80.2552 16.3189C78.8289 15.5182 77.2108 15.1179 75.4509 15.1179C72.5983 15.1179 70.7967 16.394 69.2036 17.5284C67.8274 18.5042 66.643 19.3383 64.8914 19.3383C62.5393 19.3383 60.7627 18.3207 58.3606 15.6016L58.6108 15.3931L60.0037 14.2004L53.7397 12.2319L54.7406 18.7127L56.1252 17.52L56.4589 17.2364C58.5691 19.6302 61.0546 21.8406 64.8831 21.8406C67.4354 21.8406 69.1452 20.6311 70.6466 19.5719C72.1229 18.5292 73.399 17.6201 75.4509 17.6201C76.8021 17.6201 77.9698 17.912 79.0374 18.5042L80.2552 19.1965V16.3189Z" fill="#40509B"/>
<path id="Union" fill-rule="evenodd" clip-rule="evenodd" d="M60.3628 22.7827V25.6519C61.7891 26.4527 63.4072 26.853 65.1671 26.853C68.004 26.853 69.812 25.5751 71.4021 24.4512L71.4144 24.4425L71.4297 24.4317C72.7911 23.4687 73.9732 22.6326 75.7266 22.6326C77.8468 22.6326 79.4892 23.4535 81.5423 25.5911L81.1479 25.8356L79.5882 26.8031L85.4851 29.7141V23.1498L83.9337 24.109L83.7126 24.2461C81.6973 22.0519 79.3045 20.1387 75.7349 20.1387C73.1826 20.1387 71.4728 21.3397 69.9714 22.4074C68.4951 23.4583 67.2189 24.3591 65.1671 24.3591C63.8159 24.3591 62.6482 24.0672 61.5806 23.475L60.3628 22.7827Z" fill="#40509B"/>
</g>
</svg>
