<svg width="20" height="23" viewBox="0 0 20 23" fill="none" xmlns="http://www.w3.org/2000/svg">
<g id="ClinicApp Icons">
<g id="Vector">
<path d="M17.0777 11.6592C16.9953 11.5773 16.8975 11.5125 16.7899 11.4684C16.6824 11.4243 16.5672 11.4018 16.451 11.4022C16.3347 11.4026 16.2197 11.4259 16.1125 11.4708C16.0053 11.5156 15.9079 11.5812 15.826 11.6637C15.7441 11.7461 15.6793 11.8439 15.6352 11.9515C15.5911 12.059 15.5686 12.1742 15.569 12.2904C15.5694 12.4067 15.5927 12.5217 15.6376 12.6289C15.6824 12.7361 15.748 12.8335 15.8304 12.9154C16.579 13.656 17.1731 14.5377 17.5786 15.5095C17.984 16.4813 18.1926 17.5239 18.1924 18.5769C18.1924 19.6562 15.0874 21.2308 10.2308 21.2308C5.37429 21.2308 2.26929 19.6562 2.26929 18.5769C2.26788 17.5309 2.47263 16.4948 2.87183 15.5279C3.27103 14.561 3.85686 13.6823 4.59582 12.9419C4.76058 12.7762 4.85306 12.552 4.85306 12.3183C4.85306 12.0846 4.76058 11.8604 4.59582 11.6946C4.43008 11.5299 4.20587 11.4374 3.97217 11.4374C3.73847 11.4374 3.51426 11.5299 3.34852 11.6946C2.44188 12.5962 1.72324 13.6688 1.23428 14.8502C0.745312 16.0316 0.495748 17.2983 0.500055 18.5769C0.500055 21.4519 5.51582 23 10.2308 23C14.9458 23 19.9616 21.4519 19.9616 18.5769C19.965 17.29 19.7117 16.0154 19.2165 14.8276C18.7213 13.6398 17.9942 12.5626 17.0777 11.6592Z" fill="#484A5C"/>
<path d="M10.2308 12.3846C11.4555 12.3846 12.6528 12.0214 13.6711 11.341C14.6894 10.6606 15.4831 9.6935 15.9518 8.562C16.4204 7.43051 16.5431 6.18544 16.3041 4.98425C16.0652 3.78306 15.4755 2.6797 14.6094 1.81369C13.7434 0.947678 12.6401 0.357918 11.4389 0.118986C10.2377 -0.119945 8.99263 0.00268302 7.86113 0.471364C6.72963 0.940045 5.76253 1.73373 5.08211 2.75205C4.40169 3.77037 4.03852 4.96759 4.03852 6.19231C4.03852 7.83461 4.69092 9.40965 5.8522 10.5709C7.01348 11.7322 8.58852 12.3846 10.2308 12.3846ZM10.2308 1.76923C11.1056 1.76923 11.9608 2.02864 12.6882 2.51466C13.4155 3.00067 13.9824 3.69146 14.3172 4.49967C14.652 5.30788 14.7396 6.19722 14.5689 7.05521C14.3982 7.9132 13.977 8.70132 13.3584 9.3199C12.7398 9.93847 11.9517 10.3597 11.0937 10.5304C10.2357 10.7011 9.3464 10.6135 8.53819 10.2787C7.72997 9.94393 7.03918 9.37701 6.55317 8.64964C6.06716 7.92227 5.80775 7.06711 5.80775 6.19231C5.80775 5.01924 6.27375 3.89421 7.10324 3.06472C7.93272 2.23523 9.05775 1.76923 10.2308 1.76923Z" fill="#484A5C"/>
</g>
</g>
</svg>
