<svg width="24" height="24" viewBox="0 0 24 24" fill="none" xmlns="http://www.w3.org/2000/svg">
<g id="ClinicApp Icons">
<path id="Vector" d="M12.3326 8.72621C11.6382 8.65955 10.9396 8.80315 10.3324 9.13734C9.72524 9.47153 9.23916 9.97998 8.94074 10.5931C8.64232 11.2062 8.54615 11.8939 8.6654 12.5622C8.78464 13.2305 9.11347 13.8466 9.60687 14.3262C10.1003 14.8058 10.7341 15.1254 11.4216 15.2413C12.1091 15.3572 12.8167 15.2638 13.4474 14.9737C14.0781 14.6836 14.6012 14.2111 14.945 13.6209C15.2888 13.0307 15.4366 12.3517 15.368 11.6767C15.2898 10.92 14.9449 10.2129 14.3917 9.67521C13.8385 9.13748 13.111 8.80221 12.3326 8.72621ZM20.4816 12C20.4794 12.3576 20.4524 12.7146 20.4007 13.0686L22.7914 14.8914C22.8955 14.9752 22.9657 15.0923 22.9894 15.2217C23.0131 15.3511 22.9889 15.4845 22.921 15.5981L20.6593 19.4019C20.5906 19.5144 20.4832 19.5998 20.3561 19.643C20.229 19.6862 20.0903 19.6843 19.9644 19.6378L17.59 18.7085C17.4591 18.6578 17.3173 18.6395 17.1773 18.6552C17.0373 18.6709 16.9035 18.7201 16.7878 18.7984C16.4255 19.041 16.0447 19.2564 15.6488 19.443C15.5243 19.5018 15.4167 19.5895 15.3353 19.6983C15.254 19.8071 15.2014 19.9338 15.1824 20.067L14.8265 22.5286C14.8031 22.6586 14.734 22.7767 14.631 22.8627C14.528 22.9487 14.3975 22.9972 14.2617 23H9.73828C9.60478 22.9978 9.47604 22.9514 9.37329 22.8685C9.27053 22.7856 9.19988 22.6712 9.17298 22.5441L8.81762 20.086C8.79767 19.9513 8.74378 19.8235 8.66075 19.7139C8.57772 19.6043 8.46812 19.5164 8.34169 19.4579C7.94626 19.2724 7.56676 19.0563 7.20687 18.8118C7.09164 18.7338 6.95827 18.685 6.81878 18.6697C6.67929 18.6543 6.53807 18.6729 6.40783 18.7239L4.03401 19.6527C3.90821 19.6993 3.76954 19.7012 3.64243 19.6581C3.51531 19.6151 3.40792 19.5298 3.33915 19.4173L1.07743 15.6136C1.00943 15.4999 0.985132 15.3665 1.00886 15.2371C1.03258 15.1076 1.10279 14.9906 1.20699 14.9068L3.22757 13.3647C3.33827 13.2793 3.42527 13.1684 3.48068 13.042C3.53609 12.9156 3.55815 12.7778 3.54486 12.641C3.52582 12.4266 3.51419 12.2128 3.51419 11.9985C3.51419 11.7841 3.52529 11.5734 3.54486 11.3636C3.55669 11.2277 3.53355 11.091 3.47752 10.9659C3.42148 10.8409 3.33432 10.7313 3.22387 10.6471L1.20434 9.10505C1.10184 9.0208 1.03311 8.90417 1.01019 8.7756C0.987279 8.64703 1.01164 8.51473 1.07902 8.40187L3.34074 4.59813C3.40942 4.48556 3.51678 4.40016 3.6439 4.357C3.77102 4.31384 3.90973 4.31568 4.03559 4.3622L6.40995 5.29154C6.54088 5.34222 6.68271 5.36053 6.82271 5.34483C6.96272 5.32913 7.09653 5.27991 7.21215 5.20159C7.57452 4.95903 7.9553 4.74356 8.35121 4.55701C8.47568 4.4982 8.58334 4.41052 8.66468 4.30168C8.74603 4.19285 8.79855 4.06623 8.81762 3.93299L9.17351 1.47136C9.19689 1.34135 9.26598 1.22327 9.36899 1.1373C9.47201 1.05132 9.60254 1.00279 9.73828 1H14.2617C14.3952 1.00225 14.524 1.04863 14.6267 1.1315C14.7295 1.21438 14.8001 1.32881 14.827 1.45593L15.1824 3.91397C15.2023 4.04868 15.2562 4.17651 15.3393 4.28609C15.4223 4.39567 15.5319 4.48362 15.6583 4.5421C16.0537 4.72764 16.4332 4.94371 16.7931 5.18822C16.9084 5.26616 17.0417 5.31499 17.1812 5.33034C17.3207 5.34568 17.4619 5.32705 17.5922 5.27612L19.966 4.34729C20.0918 4.30073 20.2305 4.29881 20.3576 4.34187C20.4847 4.38494 20.5921 4.47023 20.6608 4.58271L22.9226 8.38645C22.9906 8.50009 23.0149 8.6335 22.9911 8.76293C22.9674 8.89236 22.8972 9.0094 22.793 9.09322L20.7724 10.6353C20.6612 10.7204 20.5737 10.8312 20.5179 10.9576C20.462 11.084 20.4395 11.222 20.4525 11.359C20.4699 11.5718 20.4816 11.7857 20.4816 12Z" stroke="#4849A1" stroke-width="1.8" stroke-linecap="round" stroke-linejoin="round"/>
</g>
</svg>
